<svg xmlns="http://www.w3.org/2000/svg" viewBox="0 0 512 512">
  <path fill="#2780e3" d="M480 160H32c-17.67 0-32 14.33-32 32v64c0 17.67 14.33 32 32 32h448c17.67 0 32-14.33 32-32v-64c0-17.67-14.33-32-32-32zm-352 80c-13.25 0-24-10.75-24-24s10.75-24 24-24 24 10.75 24 24-10.75 24-24 24zm80 0c-13.25 0-24-10.75-24-24s10.75-24 24-24 24 10.75 24 24-10.75 24-24 24zM480 32H32C14.33 32 0 46.33 0 64v64c0 17.67 14.33 32 32 32h448c17.67 0 32-14.33 32-32V64c0-17.67-14.33-32-32-32zm-352 80c-13.25 0-24-10.75-24-24s10.75-24 24-24 24 10.75 24 24-10.75 24-24 24zm80 0c-13.25 0-24-10.75-24-24s10.75-24 24-24 24 10.75 24 24-10.75 24-24 24zM480 288H32c-17.67 0-32 14.33-32 32v64c0 17.67 14.33 32 32 32h448c17.67 0 32-14.33 32-32v-64c0-17.67-14.33-32-32-32zm-352 80c-13.25 0-24-10.75-24-24s10.75-24 24-24 24 10.75 24 24-10.75 24-24 24zm80 0c-13.25 0-24-10.75-24-24s10.75-24 24-24 24 10.75 24 24-10.75 24-24 24zM480 416H32c-17.67 0-32 14.33-32 32v64c0 17.67 14.33 32 32 32h448c17.67 0 32-14.33 32-32v-64c0-17.67-14.33-32-32-32zm-352 80c-13.25 0-24-10.75-24-24s10.75-24 24-24 24 10.75 24 24-10.75 24-24 24zm80 0c-13.25 0-24-10.75-24-24s10.75-24 24-24 24 10.75 24 24-10.75 24-24 24z"/>
</svg>
